<?xml version="1.0" standalone="no"?>
<!DOCTYPE svg PUBLIC "-//W3C//DTD SVG 20010904//EN"
 "http://www.w3.org/TR/2001/REC-SVG-20010904/DTD/svg10.dtd">
<svg version="1.0" xmlns="http://www.w3.org/2000/svg"
 width="1024.000000pt" height="1024.000000pt" viewBox="0 0 1024.000000 1024.000000"
 preserveAspectRatio="xMidYMid meet">

<g transform="translate(0.000000,1024.000000) scale(0.100000,-0.100000)"
fill="#000000" stroke="none">
<path d="M0 5120 l0 -5120 5120 0 5120 0 0 5120 0 5120 -5120 0 -5120 0 0
-5120z m5166 3829 c735 -349 1221 -521 1794 -634 102 -21 197 -44 211 -52 54
-32 59 -54 59 -257 l0 -186 -85 0 -85 0 0 143 c0 172 2 168 -120 186 -107 16
-342 69 -485 111 -392 113 -692 228 -1159 445 -267 123 -281 129 -312 121 -14
-4 -121 -52 -237 -107 -632 -300 -1151 -480 -1622 -563 -75 -13 -143 -30 -150
-37 -11 -11 -14 -157 -16 -774 -3 -829 -2 -857 57 -1138 33 -158 120 -421 130
-392 2 6 34 142 72 303 38 161 71 295 74 298 3 3 39 -12 80 -32 l74 -37 -63
-266 c-35 -146 -68 -310 -74 -364 -19 -169 15 -285 114 -394 90 -97 190 -125
318 -87 50 15 72 34 329 288 301 297 349 333 475 361 59 14 137 16 500 13 412
-3 432 -4 487 -24 94 -36 142 -76 418 -350 177 -176 278 -268 304 -279 54 -23
181 -23 229 -1 95 46 192 167 222 281 27 98 17 288 -25 465 -97 414 -214 803
-278 925 -51 97 -139 182 -237 231 l-79 39 -268 3 -269 3 -37 -29 c-68 -54
-51 -52 -544 -52 l-463 0 80 80 80 80 356 0 357 0 29 24 c72 60 76 61 365 64
247 3 273 2 345 -18 213 -58 372 -199 467 -413 66 -149 261 -854 292 -1054 4
-24 10 -43 14 -43 21 0 112 335 134 493 l7 47 85 0 84 0 -6 -42 c-66 -486
-251 -901 -588 -1323 -107 -133 -361 -386 -513 -509 -245 -200 -505 -366 -839
-538 -251 -129 -230 -129 -481 -4 -667 331 -1178 761 -1528 1287 -225 337
-358 682 -427 1111 -21 127 -22 170 -25 991 -4 850 -4 858 16 886 23 32 73 55
141 65 550 83 1168 297 1895 655 76 38 133 60 156 60 25 1 77 -18 165 -60z m3
-754 c33 -17 41 -33 41 -83 0 -35 -24 -60 -527 -564 -354 -354 -538 -531 -559
-538 -22 -7 -40 -7 -60 0 -33 13 -508 480 -530 523 -33 62 32 140 102 123 19
-5 104 -83 245 -223 l216 -214 478 478 c262 263 489 486 504 495 32 22 53 22
90 3z m1151 -260 l0 -125 -122 0 -123 0 0 125 0 125 123 0 122 0 0 -125z
m1310 28 l0 -88 -87 2 -88 2 -3 85 -3 86 91 0 90 0 0 -87z m-817 -261 l2 -122
-122 0 -123 0 0 125 0 126 121 -3 120 -3 2 -123z m487 -249 l0 -118 -120 -1
-120 -1 0 118 0 119 120 0 120 0 0 -117z m560 -8 l0 -85 -90 0 -90 0 0 85 0
85 90 0 90 0 0 -85z m-812 -137 c1 -5 2 -60 2 -123 l0 -115 -120 0 -120 0 0
123 0 122 118 0 c64 0 118 -3 120 -7z m602 -368 l0 -120 -122 0 -123 0 3 120
3 120 120 0 119 0 0 -120z m-1703 -59 c6 -1 25 -13 42 -27 60 -50 60 -148 0
-198 -24 -21 -41 -26 -83 -26 -58 0 -88 16 -111 60 -48 92 24 208 120 194 11
-1 25 -3 32 -3z m-1739 -123 c8 -8 12 -48 12 -113 0 -65 4 -105 12 -113 8 -8
46 -12 107 -12 120 0 131 -8 131 -96 0 -88 -8 -94 -129 -94 -62 0 -101 -4
-109 -12 -8 -8 -12 -49 -12 -119 0 -134 -4 -139 -100 -139 -96 0 -100 5 -100
139 0 70 -4 111 -12 119 -8 8 -47 12 -108 12 -61 0 -100 4 -108 12 -7 7 -12
41 -12 85 0 89 5 93 127 93 56 0 93 4 101 12 8 8 12 48 12 113 0 65 4 105 12
113 7 7 42 12 88 12 46 0 81 -5 88 -12z m3022 -47 c0 -21 -3 -66 -6 -100 l-7
-61 -84 0 -83 0 1 100 1 100 89 0 89 0 0 -39z m-1562 -155 c64 -35 82 -132 37
-192 -51 -67 -156 -64 -202 5 -41 61 -24 154 35 185 33 19 99 20 130 2z m613
-9 c66 -45 76 -139 19 -196 -55 -54 -155 -48 -195 12 -78 119 59 263 176 184z
m-314 -297 c51 -31 68 -66 64 -138 -1 -12 -16 -39 -35 -60 -32 -34 -39 -37
-90 -37 -49 0 -59 4 -87 32 -63 62 -44 174 34 208 44 20 77 18 114 -5z m-1797
-2862 l0 -76 -59 5 c-112 10 -161 -27 -161 -122 l0 -45 100 0 100 0 0 -80 0
-80 -100 0 -100 0 0 -325 0 -325 -105 0 -105 0 0 325 0 325 -65 0 -65 0 0 80
0 80 64 0 63 0 5 78 c7 115 56 192 138 217 35 11 132 20 217 20 l73 0 0 -77z
m2270 -387 c0 -508 -3 -484 65 -497 18 -3 38 -3 44 1 8 4 11 -21 11 -78 l0
-84 -31 -7 c-91 -18 -197 0 -241 42 -50 46 -51 62 -52 590 l-1 492 102 0 103
0 0 -459z m-4098 424 c38 -8 97 -28 133 -45 l65 -31 0 -98 0 -98 -74 39 c-174
91 -361 102 -437 26 -24 -25 -29 -38 -29 -78 0 -42 4 -51 38 -82 38 -34 48
-38 281 -103 215 -59 289 -129 299 -281 7 -103 -16 -164 -87 -234 -82 -81
-140 -102 -306 -108 -152 -5 -268 17 -366 69 l-58 31 -3 104 c-2 57 0 104 3
104 4 0 12 -7 20 -16 22 -26 147 -84 227 -105 139 -35 267 -21 328 36 30 28
34 39 34 81 0 90 -38 117 -247 169 -157 40 -225 69 -281 119 -106 96 -121 281
-32 389 88 106 297 154 492 112z m3420 -5 c146 -21 244 -83 295 -187 22 -47
28 -74 31 -150 8 -182 -64 -296 -225 -355 -50 -18 -86 -22 -255 -26 l-198 -4
0 -179 0 -179 -102 0 -103 0 0 545 0 545 245 0 c135 0 275 -5 312 -10z m-2470
-269 c65 -20 129 -72 162 -131 l31 -55 3 -312 3 -313 -95 0 -96 0 0 40 0 41
-37 -30 c-55 -44 -113 -61 -208 -61 -147 0 -228 41 -272 137 -21 46 -25 66
-21 133 3 68 7 84 33 122 63 89 187 125 388 112 l107 -7 0 38 c0 61 -27 105
-79 128 -40 17 -58 19 -175 13 -72 -3 -144 -8 -161 -12 l-30 -6 3 76 4 76 36
9 c20 5 51 12 67 14 54 9 299 0 337 -12z m1516 -16 c75 -34 123 -84 165 -173
26 -56 31 -80 35 -169 l5 -103 -296 0 -296 0 6 -32 c14 -82 73 -146 152 -168
80 -22 239 -6 344 35 l37 15 0 -75 c0 -71 -1 -75 -27 -89 -62 -31 -181 -48
-306 -44 -111 3 -128 7 -187 34 -82 39 -129 79 -163 142 -98 181 -66 454 68
569 83 71 159 94 300 90 84 -3 110 -8 163 -32z m2398 11 c64 -20 135 -82 166
-144 22 -46 23 -56 26 -354 l3 -308 -95 0 -96 0 0 35 c0 34 -12 46 -25 25 -14
-23 -110 -61 -171 -69 -213 -25 -347 71 -348 249 -1 76 27 142 77 185 65 56
126 70 306 69 l153 -2 -6 47 c-7 55 -31 90 -77 114 -30 16 -51 18 -169 13 -74
-3 -150 -8 -167 -12 l-33 -6 0 76 c0 85 -7 78 95 96 76 14 301 5 361 -14z
m554 -186 c43 -107 95 -242 118 -300 36 -94 41 -102 49 -80 6 14 56 150 113
303 l102 277 105 0 c87 0 104 -2 100 -14 -31 -80 -291 -720 -347 -851 -39 -93
-81 -194 -93 -222 l-22 -53 -101 0 -102 0 64 146 c35 81 64 152 64 159 0 6
-49 131 -109 276 -59 145 -135 331 -168 412 l-61 148 106 -3 106 -3 76 -195z
m-4288 -1056 c58 -20 68 -31 68 -76 0 -51 -18 -56 -71 -21 -59 39 -155 44
-219 11 -69 -35 -91 -83 -88 -183 4 -95 26 -136 92 -166 45 -20 138 -25 180
-9 24 9 26 14 26 70 l0 60 -60 0 -60 0 0 40 0 40 108 0 107 0 -1 -122 -2 -123
-57 -29 c-50 -26 -67 -29 -143 -29 -140 1 -220 42 -269 136 -24 45 -27 64 -27
142 0 78 3 97 27 142 38 74 93 112 192 133 50 11 143 4 197 -16z m3458 15 c24
-5 59 -17 77 -26 31 -14 33 -19 33 -64 0 -27 -4 -49 -9 -49 -5 0 -35 14 -66
30 -64 34 -141 40 -198 16 -91 -37 -134 -171 -88 -272 34 -75 102 -109 207
-102 35 2 65 6 68 8 2 3 6 32 7 65 l3 60 -57 3 -57 3 0 39 0 40 105 0 105 0 0
-124 0 -124 -45 -22 c-92 -45 -234 -44 -324 3 -52 27 -105 90 -121 145 -17 63
-12 172 11 222 56 123 197 184 349 149z m-2696 -242 c55 -133 105 -257 113
-275 l14 -33 -58 3 -57 3 -22 55 -22 55 -130 3 -129 3 -22 -61 -22 -60 -56 0
c-40 0 -54 3 -50 13 3 6 51 125 107 262 56 138 104 256 107 263 3 8 27 12 67
12 l61 0 99 -243z m545 96 c47 -78 89 -144 92 -148 4 -3 46 62 94 145 l88 150
58 0 59 0 0 -273 0 -274 -50 -2 -50 -1 -2 207 -3 206 -95 -161 c-52 -89 -97
-162 -100 -162 -3 0 -49 73 -102 162 l-97 162 0 -205 0 -204 -45 -3 -46 -3 0
276 0 276 57 -3 57 -3 85 -142z m771 -129 l0 -275 -50 3 -51 3 -2 273 -2 272
53 0 52 0 0 -276z m515 86 l140 -190 3 190 2 190 50 0 50 0 0 -275 0 -275 -45
0 -45 0 -147 197 -148 196 -3 -196 -2 -197 -50 0 -50 0 0 275 0 275 53 0 53 0
139 -190z"/>
<path d="M4530 5708 c-48 -18 -87 -53 -325 -288 -148 -147 -284 -276 -301
-288 -57 -39 -135 -63 -228 -70 l-91 -7 175 -176 c240 -241 484 -431 780 -609
152 -91 443 -240 470 -240 12 0 91 35 175 79 433 223 814 498 1111 803 l139
143 -75 6 c-191 16 -215 32 -535 349 -167 165 -287 277 -315 291 l-45 24 -440
2 c-426 2 -442 2 -495 -19z"/>
<path d="M3818 2353 c12 -2 30 -2 40 0 9 3 -1 5 -23 4 -22 0 -30 -2 -17 -4z"/>
<path d="M3898 2353 c6 -2 18 -2 25 0 6 3 1 5 -13 5 -14 0 -19 -2 -12 -5z"/>
<path d="M5410 3066 l0 -186 178 0 c149 0 182 3 211 18 56 28 75 63 79 146 5
89 -18 142 -75 177 -36 22 -50 24 -215 27 l-178 4 0 -186z"/>
<path d="M5221 2434 c0 -11 3 -14 6 -6 3 7 2 16 -1 19 -3 4 -6 -2 -5 -13z"/>
<path d="M5248 2353 c6 -2 18 -2 25 0 6 3 1 5 -13 5 -14 0 -19 -2 -12 -5z"/>
<path d="M5308 2353 c12 -2 30 -2 40 0 9 3 -1 5 -23 4 -22 0 -30 -2 -17 -4z"/>
<path d="M3072 2701 c-78 -13 -127 -68 -116 -131 12 -71 75 -106 176 -97 34 3
80 16 106 29 l47 24 3 92 3 92 -88 -1 c-48 -1 -107 -5 -131 -8z"/>
<path d="M3343 2353 c15 -2 39 -2 55 0 15 2 2 4 -28 4 -30 0 -43 -2 -27 -4z"/>
<path d="M3448 2353 c6 -2 18 -2 25 0 6 3 1 5 -13 5 -14 0 -19 -2 -12 -5z"/>
<path d="M4534 3011 c-60 -27 -104 -101 -104 -172 l0 -29 194 0 193 0 -8 49
c-13 82 -52 137 -112 160 -43 17 -117 13 -163 -8z"/>
<path d="M6979 2700 c-78 -13 -119 -54 -119 -116 0 -107 145 -148 285 -79 l55
26 0 90 0 89 -87 -1 c-49 -1 -109 -5 -134 -9z"/>
<path d="M7293 2353 c9 -2 23 -2 30 0 6 3 -1 5 -18 5 -16 0 -22 -2 -12 -5z"/>
<path d="M3522 1820 c0 -14 2 -19 5 -12 2 6 2 18 0 25 -3 6 -5 1 -5 -13z"/>
<path d="M3418 1653 c7 -3 16 -2 19 1 4 3 -2 6 -13 5 -11 0 -14 -3 -6 -6z"/>
<path d="M3393 1603 c9 -2 23 -2 30 0 6 3 -1 5 -18 5 -16 0 -22 -2 -12 -5z"/>
<path d="M6818 1383 c7 -3 16 -2 19 1 4 3 -2 6 -13 5 -11 0 -14 -3 -6 -6z"/>
<path d="M4024 1712 c-23 -59 -44 -115 -49 -124 -6 -17 1 -18 95 -18 56 0 100
4 98 8 -1 5 -23 61 -48 125 -24 65 -47 117 -50 117 -3 0 -23 -49 -46 -108z"/>
<path d="M4053 1553 c9 -2 23 -2 30 0 6 3 -1 5 -18 5 -16 0 -22 -2 -12 -5z"/>
<path d="M5901 1524 c0 -11 3 -14 6 -6 3 7 2 16 -1 19 -3 4 -6 -2 -5 -13z"/>
</g>
</svg>
